<svg id="Capa_1" enable-background="new 0 0 512 512" height="512" viewBox="0 0 512 512" width="512" xmlns="http://www.w3.org/2000/svg"><g><path d="m95 175c8.284 0 15-6.716 15-15v-48c0-8.284-6.716-15-15-15s-15 6.716-15 15v48c0 8.284 6.716 15 15 15z" fill="#454d52"/><path d="m15 33h95v78.894h-95c-8.284 0-15-6.716-15-15v-48.894c0-8.284 6.716-15 15-15z" fill="#e50058"/><path d="m152.36 257-10.083 29.969c-.406.045.49.031-91.745.031l-9.532-30 40.41-111.34c5.37-11.524 21.809-11.527 27.18 0z" fill="#8bb9ff"/><path d="m152.36 257 25.321 74.723-25.321 116.877h-111.36v-191.6z" fill="#e5a875"/><path d="m417 175c-8.284 0-15-6.716-15-15v-48c0-8.284 6.716-15 15-15s15 6.716 15 15v48c0 8.284-6.716 15-15 15z" fill="#32393f"/><path d="m497 33h-95v78.894h95c8.284 0 15-6.716 15-15v-48.894c0-8.284-6.716-15-15-15z" fill="#b40042"/><path d="m359.257 257 7.851 30.334c6.911.412-3.309.413 93.126-1.058l10.383-29.276-40.41-111.34c-5.37-11.524-21.809-11.527-27.18 0z" fill="#8bb9ff"/><path d="m359.257 257-25.321 74.723 25.321 116.877h111.36v-191.6z" fill="#cd895d"/><path d="m271 80v56c0 8.28-6.72 15-15 15s-15-6.72-15-15v-56c0-8.28 6.72-15 15-15s15 6.72 15 15z" fill="#70777c"/><path d="m271 80v56c0 8.28-6.72 15-15 15v-86c8.28 0 15 6.72 15 15z" fill="#454d52"/><path d="m351 16v48.72c0 8.29-6.72 15-15 15h-95v-78.72h95c8.28 0 15 6.72 15 15z" fill="#ff415b"/><path d="m351 16v48.72c0 8.29-6.72 15-15 15h-80v-78.72h80c8.28 0 15 6.72 15 15z" fill="#e50058"/><path d="m351.81 248.32c0 8.28.47 14.68-7.81 14.68h-176c-8.28 0-12.62-6.91-12.62-15.19l1.36-7.15c0-3.36-4.38-11.26-4.38-11.26l91.85-110.67c5.99-7.635 17.591-7.634 23.58 0l91.21 110.67c-5.66 7.73-5.355 9.529-7.19 18.92z" fill="#b1d5f1"/><path d="m351.81 248.32c0 8.28.47 14.68-7.81 14.68h-88v-150c4.6 0 8.95 2.11 11.79 5.73l91.21 110.67c-5.66 7.73-5.355 9.529-7.19 18.92z" fill="#8bb9ff"/><path d="m152.36 229.4h206.64v192.39h-206.64z" fill="#f8cf9d"/><path d="m256 229.4h103v192.39h-103z" fill="#e5a875"/><path d="m319 432v79h-126v-79c0-8.28 6.72-15 15-15h96c8.28 0 15 6.72 15 15z" fill="#956641"/><path d="m319 432v79h-63v-94h48c8.28 0 15 6.72 15 15z" fill="#7e5436"/><path d="m319 360v87h-126v-86.04c0-34.58 27.45-63.43 62.02-63.95 33.283-1.009 63.98 26.623 63.98 62.99z" fill="#f5f8f9"/><path d="m319 360v87h-63v-150c34.75 0 63 28.27 63 63z" fill="#d9e1e8"/><path d="m208 353h-64c-8.284 0-15 6.716-15 15v33h-34v-33c0-8.284-6.716-15-15-15h-64c-8.284 0-15 6.716-15 15v128c0 8.284 6.716 15 15 15h207v-143c0-8.284-6.716-15-15-15z" fill="#bd8661"/><path d="m496 353h-64c-8.284 0-15 6.716-15 15v33h-34v-33c0-8.284-6.716-15-15-15h-64c-8.284 0-15 6.716-15 15v143h207c8.284 0 15-6.716 15-15v-128c0-8.284-6.716-15-15-15z" fill="#956641"/></g></svg>