<svg xmlns="http://www.w3.org/2000/svg" viewBox="0 0 512 512"><defs><style>.cls-1{fill:#454d52;}.cls-2{fill:#e50058;}.cls-3{fill:#8bb9ff;}.cls-4{fill:#e5a875;}.cls-5{fill:#32393f;}.cls-6{fill:#b40042;}.cls-7{fill:#cd895d;}.cls-8{fill:#70777c;}.cls-9{fill:#ff415b;}.cls-10{fill:#b1d5f1;}.cls-11{fill:#f8cf9d;}.cls-12{fill:#956641;}.cls-13{fill:#7e5436;}.cls-14{fill:#f5f8f9;}.cls-15{fill:#d9e1e8;}.cls-16{fill:#bd8661;}.cls-17{fill:#4caf50;}.cls-18{fill:#388e3c;}</style></defs><title>Artboard 1</title><g id="Capa_1" data-name="Capa 1"><path class="cls-1" d="M95,175a15,15,0,0,0,15-15V112a15,15,0,0,0-30,0v48A15,15,0,0,0,95,175Z"/><path class="cls-2" d="M15,33h95v78.89H15a15,15,0,0,1-15-15V48A15,15,0,0,1,15,33Z"/><path class="cls-3" d="M152.36,257l-10.08,30c-.41,0,.49,0-91.75,0L41,257,81.41,145.66a15,15,0,0,1,27.18,0Z"/><path class="cls-4" d="M152.36,257l25.32,74.72L152.36,448.6H41V257Z"/><path class="cls-5" d="M417,175a15,15,0,0,1-15-15V112a15,15,0,0,1,30,0v48A15,15,0,0,1,417,175Z"/><path class="cls-6" d="M497,33H402v78.89h95a15,15,0,0,0,15-15V48A15,15,0,0,0,497,33Z"/><path class="cls-3" d="M359.26,257l7.85,30.33c6.91.42-3.31.42,93.12-1.05L470.62,257,430.21,145.66a15,15,0,0,0-27.18,0Z"/><path class="cls-7" d="M359.26,257l-25.32,74.72L359.26,448.6H470.62V257Z"/><path class="cls-8" d="M271,80v56a15,15,0,0,1-30,0V80a15,15,0,0,1,30,0Z"/><path class="cls-1" d="M271,80v56a15,15,0,0,1-15,15V65A15,15,0,0,1,271,80Z"/><path class="cls-9" d="M351,16V64.72a15,15,0,0,1-15,15H241V1h95A15,15,0,0,1,351,16Z"/><path class="cls-2" d="M351,16V64.72a15,15,0,0,1-15,15H256V1h80A15,15,0,0,1,351,16Z"/><path class="cls-10" d="M351.81,248.32c0,8.28.47,14.68-7.81,14.68H168c-8.28,0-12.62-6.91-12.62-15.19l1.36-7.15c0-3.36-4.38-11.26-4.38-11.26l91.85-110.67a15,15,0,0,1,23.58,0L359,229.4c-5.66,7.73-5.36,9.53-7.19,18.92Z"/><path class="cls-3" d="M351.81,248.32c0,8.28.47,14.68-7.81,14.68H256V113a15,15,0,0,1,11.79,5.73L359,229.4c-5.66,7.73-5.36,9.53-7.19,18.92Z"/><path class="cls-11" d="M152.36,229.4H359V421.79H152.36Z"/><path class="cls-4" d="M256,229.4H359V421.79H256Z"/><path class="cls-12" d="M319,432v79H193V432a15,15,0,0,1,15-15h96A15,15,0,0,1,319,432Z"/><path class="cls-13" d="M319,432v79H256V417h48A15,15,0,0,1,319,432Z"/><path class="cls-14" d="M319,360v87H193V361c0-34.58,27.45-63.43,62-63.95,33.28-1,64,26.62,64,63Z"/><path class="cls-15" d="M319,360v87H256V297A63.07,63.07,0,0,1,319,360Z"/><path class="cls-16" d="M208,353H144a15,15,0,0,0-15,15v33H95V368a15,15,0,0,0-15-15H16A15,15,0,0,0,1,368V496a15,15,0,0,0,15,15H223V368A15,15,0,0,0,208,353Z"/><path class="cls-12" d="M496,353H432a15,15,0,0,0-15,15v33H383V368a15,15,0,0,0-15-15H304a15,15,0,0,0-15,15V511H496a15,15,0,0,0,15-15V368A15,15,0,0,0,496,353Z"/></g><g id="Layer_2" data-name="Layer 2"><path class="cls-17" d="M409.19,309.88a25.48,25.48,0,0,1-6.62,9.61l-.38.39a26.86,26.86,0,0,1-18.56,7.26H346.52a6.51,6.51,0,0,1-5.45-3l-6.22-10-26.21-41.91a5.87,5.87,0,0,1-.78-5.06,6.32,6.32,0,0,1,3.11-4.15l58.39-32.44a6.6,6.6,0,0,1,8.82,2.59l30.1,53.72A26.61,26.61,0,0,1,409.19,309.88Z"/><path class="cls-17" d="M269.46,172.61,264,180.27l-28.94,40.35a6.38,6.38,0,0,1-5.32,2.72,6.88,6.88,0,0,1-3.11-.77l-71.36-38.93a6.33,6.33,0,0,1-3.24-4.28A6.49,6.49,0,0,1,153.2,174l27.77-37a40,40,0,0,1,3.63-4.28,42.45,42.45,0,0,1,30-13.23,8.54,8.54,0,0,1,1.82.13A43.76,43.76,0,0,1,251,138.49l18.43,26.73A6.49,6.49,0,0,1,269.46,172.61Z"/><path class="cls-17" d="M227.68,299.5a6.49,6.49,0,0,1-7.27,1l-20.24-10.12-11.81,23.75-4.67,9.34a6.65,6.65,0,0,1-5.84,3.63H127.77a26.51,26.51,0,0,1-18.68-7.39l-.26-.26a26.85,26.85,0,0,1-8.17-25.82,28.16,28.16,0,0,1,2.33-6.62l21.54-43L102,221.4a6.16,6.16,0,0,1-1.42-7,6.47,6.47,0,0,1,6-4h84.34a6.49,6.49,0,0,1,6,4l32.43,77.85A6.64,6.64,0,0,1,227.68,299.5Z"/><path class="cls-18" d="M229.75,320.65V398.5a6.49,6.49,0,0,1-6.48,6.49H191.74A45,45,0,0,1,154.5,385.4c-1.82-2.6-3.37-4.93-4.8-7l-.52-.52c.13,0-2.46-3.63-4.93-7.26-1.17-1.56-2.08-3.12-3-4.29-3.38-4.93-5.19-7.39-4.42-6.35-.64-1-1.29-1.82-1.55-2.34l-.13-.13c-.52-.78-.69-1-.72-1.1l-.19-.2-.13-.26c-9.08-13.1-17.52-25.3-25-36.19l-.26-.26c-2.47-3.38-4.67-6.75-6.88-9.86a27.72,27.72,0,0,1-1.29-16l17.51,16.73a13.33,13.33,0,0,0,9.6,3.77h95.5A6.48,6.48,0,0,1,229.75,320.65Z"/><path class="cls-18" d="M372,154.45,339.52,232.3a6.49,6.49,0,0,1-6,4,3.57,3.57,0,0,1-1.17-.13l-71.36-13a6.77,6.77,0,0,1-5.32-5.45,6.48,6.48,0,0,1,3.63-6.74l19.21-9.6L264,180.27l-23.62-34.51a30.57,30.57,0,0,0-24.91-13H184.6a42.22,42.22,0,0,1,24.13-12.71l5.84-.39h1.82l83.81-.13A32.4,32.4,0,0,1,327.32,134l14.92,22.57,20.89-10.38a6.52,6.52,0,0,1,7.27,1A6.64,6.64,0,0,1,372,154.45Z"/><path class="cls-18" d="M409.19,309.88l-6.1,8.83-.52.78-.38.39L357,385.4A45.21,45.21,0,0,1,319.67,405H307.6v19.46a6.63,6.63,0,0,1-4.15,6.1,7.41,7.41,0,0,1-2.34.39,6.25,6.25,0,0,1-4.8-2.21l-51.9-58.38a6.29,6.29,0,0,1-.38-8.05l51.89-71.36a6.42,6.42,0,0,1,11.68,3.76v19.47h76a13.3,13.3,0,0,0,9.6-3.77l17.52-16.73A26.52,26.52,0,0,1,409.19,309.88Z"/></g></svg>